<svg version="1.0" id="Layer_1" xmlns="http://www.w3.org/2000/svg" xmlns:xlink="http://www.w3.org/1999/xlink" x="0px" y="0px"
	 width="100px" height="100px" viewBox="0 0 100 100" enable-background="new 0 0 100 100" xml:space="preserve">
<path fill="#356ee9" d="M62.93,41.784l4.715-4.714l-4.715-4.713l-4.714,4.713L50,28.857L28.857,50l8.213,8.216l-4.715,4.714
	l4.715,4.715l4.714-4.715L50,71.143L71.146,50L62.93,41.784z M50,61.723L38.284,50L50,38.284L61.719,50L50,61.723z"/>
<path fill="#ffffff" d="M50,10L10,50l40,40l40-40L50,10z M19.427,50L50,19.427L80.573,50L50,80.573L19.427,50z"/>
</svg>
